<?xml version="1.0" encoding="utf-8"?>
<svg xmlns="http://www.w3.org/2000/svg" width="1620" height="376">
	<g id="1st">
		<g id="bg">
			<polygon id="gauge_bg" opacity=".09" fill="#fff" points="951.315,104.5 930.53,140.5 332.95,140.5 332.95,53.5 1514.975,53.5 1485.53,104.5" />
			<path opacity=".3" fill="#fff" d="M0 0h91v194h-91v-47.5h32c9.665 0 17.5-7.835 17.5-17.5v-64c0-9.665-7.835-17.5-17.5-17.5h-32v-47.5z" />
			<g id="with_status">
				<linearGradient id="1st_bg_b" gradientUnits="userSpaceOnUse" x1="100.5" y1="129" x2="1620" y2="129">
					<stop offset="0" stop-color="#fff" stop-opacity=".3" />
					<stop offset="1" stop-color="#fff" stop-opacity=".05" />
				</linearGradient>
				<path fill="url(#1st_bg_b)" d="M1540.614 137.5l79.386-137.5h-1519.5v194h867v-35c0-11.874 9.626-21.5 21.5-21.5h551.614zm-589.299-33l-20.785 36h-597.58v-87h1182.025l-29.445 51h-534.215zm616.185 54.5v84c0 8.284-6.716 15-15 15h-182.75v-114h182.75c8.284 0 15 6.716 15 15zm-578.5-15h374.25v114h-374.25c-8.284 0-15-6.716-15-15v-84c0-8.284 6.716-15 15-15z" />
			</g>
		</g>
		<g id="gauge">
			<g id="green">
				<g>
					<linearGradient id="1st_hp_a" gradientUnits="userSpaceOnUse" x1="921.217" y1="61" x2="921.217" y2="133">
						<stop offset="0" stop-color="#65A719" />
						<stop offset="1" stop-color="#87D529" />
					</linearGradient>
					<polygon fill="url(#1st_hp_a)" points="946.985,97 1481.2,97 1501.985,61 340.45,61 340.45,133 926.2,133" />
				</g>
				<g id="max (4%)">
					<polygon fill="#93C856" points="1481.2,97 1501.985,61 1455.784,61 1435,97" />
				</g>
			</g>

		<g id="wrapper">
			<path fill="#373737" d="M330.75 50.5v92h601.523l20.785-36h534.215l32.332-56h-1188.855zm1150.45 46.5h-534.215l-20.785 36h-585.75v-72h1161.535l-20.785 36z" />
			<linearGradient id="1st_w_a" gradientUnits="userSpaceOnUse" x1="925.061" y1="49" x2="925.061" y2="142">
				<stop offset="0" stop-color="#373232" />
				<stop offset="1" stop-color="#161616" />
			</linearGradient>
			<path fill="url(#1st_w_a)" d="M1520.171 49h-1190.221v93h602.312l20.785-36h534.215l32.909-57zm-568.856 54l-20.785 36h-597.58v-87h1182.025l-29.445 51h-534.215z" />
			<path fill="#FBFBFB" d="M1520.171 50.5h-1190.221v93h602.312l20.785-36h534.215l32.909-57zm-568.856 54l-20.785 36h-597.58v-87h1182.025l-29.445 51h-534.215z" />
		</g>
		<g id="Status">
			<g id="lv96">
				<path fill="#4D4D4D" d="M1493.63 174.76v44.227c0 2.299-1.875 4.175-4.174 4.175h-16.577v-5.929h14.822v-15.308h-10.588c-2.359 0-4.234-1.875-4.234-4.174v-18.816c0-2.299 1.875-4.175 4.234-4.175h16.517zm-5.929 5.93h-8.894v15.307h8.894v-15.307zm33.093 38.297c0 2.299-1.875 4.175-4.174 4.175h-12.343c-2.359 0-4.234-1.876-4.234-4.175v-40.052c0-2.299 1.875-4.175 4.234-4.175h16.517v5.93h-14.822v15.307h10.648c2.299 0 4.174 1.876 4.174 4.175v18.815zm-5.929-1.754v-15.308h-8.894v15.308h8.894zm-93.113 5.928h-20.752v-48.401h5.929v42.473h14.823v5.928zm22.506-48.401l-3.448 48.401h-13.855l-3.448-48.401h5.929l3.025 42.473h2.844l3.025-42.473h5.928zm10.042 13.855v5.929h-5.929v-5.929h5.929zm-5.929 28.618h5.929v5.929h-5.929v-5.929zm-224.935-42.473v48.401h-5.929v-42.471h-4.417v-5.93h10.346zm28.193 48.401h-12.343c-2.359 0-4.234-1.876-4.234-4.175v-40.052c0-2.299 1.875-4.175 4.174-4.175h12.403c2.299 0 4.174 1.876 4.174 4.175v40.052c0 2.299-1.875 4.175-4.174 4.175zm-1.755-42.471h-8.894v15.307h8.894v-15.307zm0 21.235h-8.894v15.308h8.894v-15.308zm18.271-21.235v15.307h10.648c2.299 0 4.174 1.876 4.174 4.175v18.815c0 2.299-1.875 4.175-4.174 4.175h-16.577v-5.929h14.822v-15.308h-14.822v-27.165h20.751v5.93h-14.822zm41.986-5.93v44.227c0 2.299-1.875 4.175-4.174 4.175h-12.343c-2.359 0-4.234-1.876-4.234-4.175v-40.052c0-2.299 1.875-4.175 4.234-4.175h16.517zm-5.929 5.93h-8.894v36.543h8.894v-36.543zm33.093-5.93v44.227c0 2.299-1.875 4.175-4.174 4.175h-12.343c-2.359 0-4.234-1.876-4.234-4.175v-40.052c0-2.299 1.875-4.175 4.234-4.175h16.517zm-5.929 5.93h-8.894v36.543h8.894v-36.543zm-159.392 42.471h-5.929l7.744-54.33h5.929l-7.744 54.33zm-140.538-48.401v48.401h-5.929v-42.471h-4.417v-5.93h10.346zm28.193 48.401h-12.343c-2.359 0-4.234-1.876-4.234-4.175v-40.052c0-2.299 1.875-4.175 4.174-4.175h12.403c2.299 0 4.174 1.876 4.174 4.175v40.052c0 2.299-1.875 4.175-4.174 4.175zm-1.755-42.471h-8.894v15.307h8.894v-15.307zm0 21.235h-8.894v15.308h8.894v-15.308zm18.271-21.235v15.307h10.648c2.299 0 4.174 1.876 4.174 4.175v18.815c0 2.299-1.875 4.175-4.174 4.175h-16.577v-5.929h14.822v-15.308h-14.822v-27.165h20.751v5.93h-14.822zm41.986-5.93v44.227c0 2.299-1.875 4.175-4.174 4.175h-12.343c-2.359 0-4.234-1.876-4.234-4.175v-40.052c0-2.299 1.875-4.175 4.234-4.175h16.517zm-5.929 5.93h-8.894v36.543h8.894v-36.543zm33.093-5.93v44.227c0 2.299-1.875 4.175-4.174 4.175h-12.343c-2.359 0-4.234-1.876-4.234-4.175v-40.052c0-2.299 1.875-4.175 4.234-4.175h16.517zm-5.929 5.93h-8.894v36.543h8.894v-36.543z" />
				<path fill="#FBFBFB" d="M1493.63 176.26v44.227c0 2.299-1.875 4.175-4.174 4.175h-16.577v-5.929h14.822v-15.308h-10.588c-2.359 0-4.234-1.875-4.234-4.174v-18.816c0-2.299 1.875-4.175 4.234-4.175h16.517zm-5.929 5.93h-8.894v15.307h8.894v-15.307zm33.093 38.297c0 2.299-1.875 4.175-4.174 4.175h-12.343c-2.359 0-4.234-1.876-4.234-4.175v-40.052c0-2.299 1.875-4.175 4.234-4.175h16.517v5.93h-14.822v15.307h10.648c2.299 0 4.174 1.876 4.174 4.175v18.815zm-5.929-1.754v-15.308h-8.894v15.308h8.894zm-93.113 5.928h-20.752v-48.401h5.929v42.473h14.823v5.928zm22.506-48.401l-3.448 48.401h-13.855l-3.448-48.401h5.929l3.025 42.473h2.844l3.025-42.473h5.928zm10.042 13.855v5.929h-5.929v-5.929h5.929zm-5.929 28.618h5.929v5.929h-5.929v-5.929zm-224.935-42.473v48.401h-5.929v-42.471h-4.417v-5.93h10.346zm28.193 48.401h-12.343c-2.359 0-4.234-1.876-4.234-4.175v-40.052c0-2.299 1.875-4.175 4.174-4.175h12.403c2.299 0 4.174 1.876 4.174 4.175v40.052c0 2.299-1.875 4.175-4.174 4.175zm-1.755-42.471h-8.894v15.307h8.894v-15.307zm0 21.235h-8.894v15.308h8.894v-15.308zm18.271-21.235v15.307h10.648c2.299 0 4.174 1.876 4.174 4.175v18.815c0 2.299-1.875 4.175-4.174 4.175h-16.577v-5.929h14.822v-15.308h-14.822v-27.165h20.751v5.93h-14.822zm41.986-5.93v44.227c0 2.299-1.875 4.175-4.174 4.175h-12.343c-2.359 0-4.234-1.876-4.234-4.175v-40.052c0-2.299 1.875-4.175 4.234-4.175h16.517zm-5.929 5.93h-8.894v36.543h8.894v-36.543zm33.093-5.93v44.227c0 2.299-1.875 4.175-4.174 4.175h-12.343c-2.359 0-4.234-1.876-4.234-4.175v-40.052c0-2.299 1.875-4.175 4.234-4.175h16.517zm-5.929 5.93h-8.894v36.543h8.894v-36.543zm-159.392 42.471h-5.929l7.744-54.33h5.929l-7.744 54.33zm-140.538-48.401v48.401h-5.929v-42.471h-4.417v-5.93h10.346zm28.193 48.401h-12.343c-2.359 0-4.234-1.876-4.234-4.175v-40.052c0-2.299 1.875-4.175 4.174-4.175h12.403c2.299 0 4.174 1.876 4.174 4.175v40.052c0 2.299-1.875 4.175-4.174 4.175zm-1.755-42.471h-8.894v15.307h8.894v-15.307zm0 21.235h-8.894v15.308h8.894v-15.308zm18.271-21.235v15.307h10.648c2.299 0 4.174 1.876 4.174 4.175v18.815c0 2.299-1.875 4.175-4.174 4.175h-16.577v-5.929h14.822v-15.308h-14.822v-27.165h20.751v5.93h-14.822zm41.986-5.93v44.227c0 2.299-1.875 4.175-4.174 4.175h-12.343c-2.359 0-4.234-1.876-4.234-4.175v-40.052c0-2.299 1.875-4.175 4.234-4.175h16.517zm-5.929 5.93h-8.894v36.543h8.894v-36.543zm33.093-5.93v44.227c0 2.299-1.875 4.175-4.174 4.175h-12.343c-2.359 0-4.234-1.876-4.234-4.175v-40.052c0-2.299 1.875-4.175 4.234-4.175h16.517zm-5.929 5.93h-8.894v36.543h8.894v-36.543z" />
			</g>
		</g>
	</g>
</svg>